<?xml version="1.0" encoding="UTF-8" standalone="no"?>
<!-- Generator: Gravit.io -->
<svg xmlns="http://www.w3.org/2000/svg" xmlns:xlink="http://www.w3.org/1999/xlink" style="isolation:isolate" viewBox="0 0 240.945 155.906" width="240.945pt" height="155.906pt"><defs><clipPath id="_clipPath_UjJiivsNwVZZALzIj0K5l58fs59rvR5n"><rect width="240.945" height="155.906"/></clipPath></defs><g clip-path="url(#_clipPath_UjJiivsNwVZZALzIj0K5l58fs59rvR5n)"><mask id="_mask_OnwrJOOvOJVwsq1XqQ7OK0p3S3DtLWx7"><path d=" M 66.615 50.561 C 74.422 49.929 82.69 50.198 90.008 53.281 L 90.008 53.281 L 88.376 56.001 C 81.553 53.202 73.845 53.114 66.615 53.825 L 66.615 53.825 L 57.911 56.001 C 55.955 55.024 55.955 53.715 57.911 52.737 L 57.911 52.737 L 66.615 50.561 Z " fill="white" stroke="none"/></mask><path d=" M 66.615 50.561 C 74.422 49.929 82.69 50.198 90.008 53.281 L 90.008 53.281 L 88.376 56.001 C 81.553 53.202 73.845 53.114 66.615 53.825 L 66.615 53.825 L 57.911 56.001 C 55.955 55.024 55.955 53.715 57.911 52.737 L 57.911 52.737 L 66.615 50.561 Z " fill="rgb(238,24,24)"/><path d=" M 66.615 50.561 C 74.422 49.929 82.69 50.198 90.008 53.281 L 90.008 53.281 L 88.376 56.001 C 81.553 53.202 73.845 53.114 66.615 53.825 L 66.615 53.825 L 57.911 56.001 C 55.955 55.024 55.955 53.715 57.911 52.737 L 57.911 52.737 L 66.615 50.561 Z " fill="rgb(238,24,24)" mask="url(#_mask_OnwrJOOvOJVwsq1XqQ7OK0p3S3DtLWx7)" vector-effect="non-scaling-stroke" stroke-width="2" stroke="rgb(0,0,0)" stroke-linejoin="miter" stroke-linecap="square" stroke-miterlimit="3"/><mask id="_mask_2x6yFbjeUc5JbnYMIxdm2xOqbSRYuxF7"><path d=" M 79.672 50.561 L 83.48 51.105 L 79.672 51.649 L 79.672 50.561 Z " fill="white" stroke="none"/></mask><path d=" M 79.672 50.561 L 83.48 51.105 L 79.672 51.649 L 79.672 50.561 Z " fill="rgb(238,24,24)"/><path d=" M 79.672 50.561 L 83.48 51.105 L 79.672 51.649 L 79.672 50.561 Z " fill="rgb(238,24,24)" mask="url(#_mask_2x6yFbjeUc5JbnYMIxdm2xOqbSRYuxF7)" vector-effect="non-scaling-stroke" stroke-width="2" stroke="rgb(0,0,0)" stroke-linejoin="miter" stroke-linecap="square" stroke-miterlimit="3"/><mask id="_mask_8IBUBSoNS2bT7XLaKm40InZmwzleBR09"><path d=" M 66.615 53.825 L 80.216 54.369 L 66.615 54.913 L 66.615 53.825 Z  M 56.823 54.913 L 58.999 58.177 L 56.823 54.913 Z  M 61.175 54.913 L 64.983 56.545 L 62.263 57.089 L 61.175 54.913 Z " fill-rule="evenodd" fill="white" stroke="none"/></mask><path d=" M 66.615 53.825 L 80.216 54.369 L 66.615 54.913 L 66.615 53.825 Z  M 56.823 54.913 L 58.999 58.177 L 56.823 54.913 Z  M 61.175 54.913 L 64.983 56.545 L 62.263 57.089 L 61.175 54.913 Z " fill-rule="evenodd" fill="rgb(238,24,24)"/><path d=" M 66.615 53.825 L 80.216 54.369 L 66.615 54.913 L 66.615 53.825 Z  M 56.823 54.913 L 58.999 58.177 L 56.823 54.913 Z  M 61.175 54.913 L 64.983 56.545 L 62.263 57.089 L 61.175 54.913 Z " fill-rule="evenodd" fill="rgb(238,24,24)" mask="url(#_mask_8IBUBSoNS2bT7XLaKm40InZmwzleBR09)" vector-effect="non-scaling-stroke" stroke-width="2" stroke="rgb(0,0,0)" stroke-linejoin="miter" stroke-linecap="square" stroke-miterlimit="3"/><mask id="_mask_cx838IfsiHwdPtoHSculHIP4Uk1P3t1l"><path d=" M 67.703 54.913 L 79.128 55.457 L 67.703 56.001 L 67.703 54.913 Z " fill="white" stroke="none"/></mask><path d=" M 67.703 54.913 L 79.128 55.457 L 67.703 56.001 L 67.703 54.913 Z " fill="rgb(238,24,24)"/><path d=" M 67.703 54.913 L 79.128 55.457 L 67.703 56.001 L 67.703 54.913 Z " fill="rgb(238,24,24)" mask="url(#_mask_cx838IfsiHwdPtoHSculHIP4Uk1P3t1l)" vector-effect="non-scaling-stroke" stroke-width="2" stroke="rgb(0,0,0)" stroke-linejoin="miter" stroke-linecap="square" stroke-miterlimit="3"/><mask id="_mask_vlr7O0ojthdubVDx679UF7dtCX69106U"><path d=" M 82.936 54.913 L 85.656 55.457 L 81.848 57.089 L 82.936 54.913 Z  M 89.464 54.913 L 87.288 58.177 L 89.464 54.913 Z " fill-rule="evenodd" fill="white" stroke="none"/></mask><path d=" M 82.936 54.913 L 85.656 55.457 L 81.848 57.089 L 82.936 54.913 Z  M 89.464 54.913 L 87.288 58.177 L 89.464 54.913 Z " fill-rule="evenodd" fill="rgb(238,24,24)"/><path d=" M 82.936 54.913 L 85.656 55.457 L 81.848 57.089 L 82.936 54.913 Z  M 89.464 54.913 L 87.288 58.177 L 89.464 54.913 Z " fill-rule="evenodd" fill="rgb(238,24,24)" mask="url(#_mask_vlr7O0ojthdubVDx679UF7dtCX69106U)" vector-effect="non-scaling-stroke" stroke-width="2" stroke="rgb(0,0,0)" stroke-linejoin="miter" stroke-linecap="square" stroke-miterlimit="3"/><mask id="_mask_yMkRBO6wuBx6ghCOQDgvMNBMdKJ20sYW"><path d=" M 56.823 56.001 L 59.543 56.545 L 57.911 59.265 L 56.823 56.001 Z " fill="white" stroke="none"/></mask><path d=" M 56.823 56.001 L 59.543 56.545 L 57.911 59.265 L 56.823 56.001 Z " fill="rgb(238,24,24)"/><path d=" M 56.823 56.001 L 59.543 56.545 L 57.911 59.265 L 56.823 56.001 Z " fill="rgb(238,24,24)" mask="url(#_mask_yMkRBO6wuBx6ghCOQDgvMNBMdKJ20sYW)" vector-effect="non-scaling-stroke" stroke-width="2" stroke="rgb(0,0,0)" stroke-linejoin="miter" stroke-linecap="square" stroke-miterlimit="3"/><mask id="_mask_M61XvW3ochi9SvF3cB6MnQxF8KlfM1V9"><path d=" M 65.527 56.001 C 72.835 54.945 81.323 54.622 87.832 58.721 L 87.832 58.721 L 73.143 90.818 L 58.455 58.721 L 65.527 56.001 Z " fill="white" stroke="none"/></mask><path d=" M 65.527 56.001 C 72.835 54.945 81.323 54.622 87.832 58.721 L 87.832 58.721 L 73.143 90.818 L 58.455 58.721 L 65.527 56.001 Z " fill="rgb(238,24,24)"/><path d=" M 65.527 56.001 C 72.835 54.945 81.323 54.622 87.832 58.721 L 87.832 58.721 L 73.143 90.818 L 58.455 58.721 L 65.527 56.001 Z " fill="rgb(238,24,24)" mask="url(#_mask_M61XvW3ochi9SvF3cB6MnQxF8KlfM1V9)" vector-effect="non-scaling-stroke" stroke-width="2" stroke="rgb(0,0,0)" stroke-linejoin="miter" stroke-linecap="square" stroke-miterlimit="3"/><mask id="_mask_r4iByIjIqtMNywap8eJLwZZZbgp8g2Cn"><path d=" M 87.288 56.001 L 90.008 56.545 L 88.376 59.265 L 87.288 56.001 Z " fill="white" stroke="none"/></mask><path d=" M 87.288 56.001 L 90.008 56.545 L 88.376 59.265 L 87.288 56.001 Z " fill="rgb(238,24,24)"/><path d=" M 87.288 56.001 L 90.008 56.545 L 88.376 59.265 L 87.288 56.001 Z " fill="rgb(238,24,24)" mask="url(#_mask_r4iByIjIqtMNywap8eJLwZZZbgp8g2Cn)" vector-effect="non-scaling-stroke" stroke-width="2" stroke="rgb(0,0,0)" stroke-linejoin="miter" stroke-linecap="square" stroke-miterlimit="3"/><mask id="_mask_W3tm5Pv0ipmxA63fLjWcLsxQdqHEPuVU"><path d=" M 75.32 61.442 L 76.952 61.986 L 73.688 64.162 L 75.32 61.442 Z " fill="white" stroke="none"/></mask><path d=" M 75.32 61.442 L 76.952 61.986 L 73.688 64.162 L 75.32 61.442 Z " fill="rgb(238,24,24)"/><path d=" M 75.32 61.442 L 76.952 61.986 L 73.688 64.162 L 75.32 61.442 Z " fill="rgb(238,24,24)" mask="url(#_mask_W3tm5Pv0ipmxA63fLjWcLsxQdqHEPuVU)" vector-effect="non-scaling-stroke" stroke-width="2" stroke="rgb(0,0,0)" stroke-linejoin="miter" stroke-linecap="square" stroke-miterlimit="3"/><path d=" M 93.816 61.442 L 99.8 61.986 L 93.816 62.53 L 93.816 61.442 Z  M 113.4 61.442 L 122.648 61.986 L 113.4 62.53 L 113.4 61.442 Z  M 180.858 61.442 L 186.842 61.986 L 180.314 63.074 L 179.77 79.938 L 179.226 63.074 L 180.858 61.442 Z  M 200.442 61.442 L 204.25 61.986 L 199.898 63.074 L 199.354 79.938 L 198.81 63.074 L 200.442 61.442 Z  M 224.379 61.442 L 228.187 61.986 L 224.379 62.53 L 224.379 61.442 Z " fill-rule="evenodd" fill="rgb(255,14,14)"/><mask id="_mask_aYkOpge0PMLJ9RC9zt3BGBj3k1bbbDDE"><path d=" M 66.615 62.53 L 70.423 63.074 L 68.247 64.162 L 68.791 65.794 L 66.615 62.53 Z " fill="white" stroke="none"/></mask><path d=" M 66.615 62.53 L 70.423 63.074 L 68.247 64.162 L 68.791 65.794 L 66.615 62.53 Z " fill="rgb(238,24,24)"/><path d=" M 66.615 62.53 L 70.423 63.074 L 68.247 64.162 L 68.791 65.794 L 66.615 62.53 Z " fill="rgb(238,24,24)" mask="url(#_mask_aYkOpge0PMLJ9RC9zt3BGBj3k1bbbDDE)" vector-effect="non-scaling-stroke" stroke-width="2" stroke="rgb(0,0,0)" stroke-linejoin="miter" stroke-linecap="square" stroke-miterlimit="3"/><path d=" M 92.728 62.53 C 96.365 61.802 101.25 61.259 104.152 64.162 L 104.152 64.162 L 105.24 69.602 L 103.608 72.322 L 101.976 72.866 L 105.24 79.394 L 103.608 79.938 L 99.256 73.41 L 94.36 73.954 L 93.816 79.938 L 92.184 79.394 L 92.728 62.53 Z  M 112.312 62.53 L 123.737 63.074 L 113.944 64.162 L 114.488 70.146 L 123.737 70.69 C 121.732 73.951 117.144 73.517 113.944 72.866 L 113.944 72.866 L 114.488 77.762 C 117.35 77.02 121.996 76.161 123.737 79.394 L 123.737 79.394 L 112.312 79.938 L 112.312 62.53 Z  M 130.809 62.53 L 135.161 76.674 L 140.601 62.53 L 142.233 63.074 L 147.129 76.674 L 151.481 62.53 L 152.025 66.338 L 147.129 79.938 L 145.497 79.394 L 140.601 65.794 L 135.161 79.938 C 131.725 74.808 130.495 68.631 130.809 62.53 L 130.809 62.53 Z  M 165.625 62.53 L 167.257 63.074 L 173.786 79.394 L 172.153 79.938 L 169.977 75.586 L 160.729 76.13 L 159.097 79.938 L 158.553 78.306 L 165.625 62.53 Z  M 180.858 62.53 C 184.171 61.891 188.609 61.457 191.194 64.162 L 191.194 64.162 L 192.282 69.602 L 190.65 72.322 L 189.018 72.866 L 192.282 79.394 L 190.65 79.938 L 187.386 73.41 L 181.402 73.954 L 180.858 79.938 L 180.858 62.53 Z  M 200.442 62.53 C 203.818 62.042 207.917 61.913 210.727 64.213 C 214.951 67.668 214.242 76.534 209.146 78.85 L 209.146 78.85 L 200.442 79.938 L 200.442 62.53 Z " fill-rule="evenodd" fill="rgb(255,14,14)"/><path d=" M 222.202 62.53 L 228.187 64.162 L 222.202 65.794 L 222.202 62.53 Z " fill="rgb(255,14,14)"/><path d=" M 223.291 62.53 C 226.208 61.946 230.3 61.797 231.451 65.25 L 231.451 65.25 L 229.819 65.794 C 228.898 63.032 225.625 63.151 223.291 63.618 L 223.291 63.618 L 221.658 67.426 L 232.539 73.954 L 228.731 79.938 C 225.531 80.447 221.286 80.479 219.482 77.218 L 219.482 77.218 L 220.026 75.586 C 221.942 80.727 231.159 80.326 230.363 73.954 L 230.363 73.954 L 220.57 69.602 L 219.482 67.426 L 221.114 63.618 L 223.291 62.53 Z " fill="rgb(255,14,14)"/><path d=" M 229.819 62.53 C 232.102 63.544 233.693 65.289 230.907 66.882 L 230.907 66.882 L 229.819 62.53 Z  M 94.904 63.618 L 100.888 64.162 L 94.904 64.706 L 94.904 63.618 Z  M 114.488 63.618 L 123.737 64.162 L 114.488 64.706 L 114.488 63.618 Z  M 181.946 63.618 L 187.93 64.162 L 182.49 65.25 L 183.034 71.234 L 187.93 71.778 L 181.946 72.322 L 181.946 63.618 Z  M 201.53 63.618 L 206.426 64.162 L 202.074 65.25 L 202.618 77.762 L 204.25 78.306 L 202.618 78.85 C 197.78 75.521 199.959 68.028 201.53 63.618 L 201.53 63.618 Z  M 210.234 63.618 L 212.41 66.882 L 210.234 63.618 Z " fill-rule="evenodd" fill="rgb(255,14,14)"/><mask id="_mask_dtWqVxWjgPQ9UOuubyT8JccqaJYwUyEl"><path d=" M 62.263 66.882 L 63.895 70.69 L 62.807 70.69 L 62.263 66.882 Z  M 70.967 66.882 L 69.879 69.058 L 68.247 68.514 L 70.967 66.882 Z  M 82.936 69.058 L 83.48 70.69 L 81.848 73.41 L 81.304 71.778 L 82.936 69.058 Z " fill-rule="evenodd" fill="white" stroke="none"/></mask><path d=" M 62.263 66.882 L 63.895 70.69 L 62.807 70.69 L 62.263 66.882 Z  M 70.967 66.882 L 69.879 69.058 L 68.247 68.514 L 70.967 66.882 Z  M 82.936 69.058 L 83.48 70.69 L 81.848 73.41 L 81.304 71.778 L 82.936 69.058 Z " fill-rule="evenodd" fill="rgb(238,24,24)"/><path d=" M 62.263 66.882 L 63.895 70.69 L 62.807 70.69 L 62.263 66.882 Z  M 70.967 66.882 L 69.879 69.058 L 68.247 68.514 L 70.967 66.882 Z  M 82.936 69.058 L 83.48 70.69 L 81.848 73.41 L 81.304 71.778 L 82.936 69.058 Z " fill-rule="evenodd" fill="rgb(238,24,24)" mask="url(#_mask_dtWqVxWjgPQ9UOuubyT8JccqaJYwUyEl)" vector-effect="non-scaling-stroke" stroke-width="2" stroke="rgb(0,0,0)" stroke-linejoin="miter" stroke-linecap="square" stroke-miterlimit="3"/><path d=" M 115.576 69.058 L 123.737 69.602 L 115.576 70.146 L 115.576 69.058 Z " fill="rgb(255,14,14)"/><mask id="_mask_HWVVuTaQOEytEGwXf9MKzFpJIltBML6s"><path d=" M 72.055 73.41 L 73.143 77.762 L 74.776 77.218 L 75.32 73.41 L 76.952 77.218 L 74.776 78.306 L 74.232 79.938 L 70.423 77.218 L 72.055 73.41 Z " fill="white" stroke="none"/></mask><path d=" M 72.055 73.41 L 73.143 77.762 L 74.776 77.218 L 75.32 73.41 L 76.952 77.218 L 74.776 78.306 L 74.232 79.938 L 70.423 77.218 L 72.055 73.41 Z " fill="rgb(238,24,24)"/><path d=" M 72.055 73.41 L 73.143 77.762 L 74.776 77.218 L 75.32 73.41 L 76.952 77.218 L 74.776 78.306 L 74.232 79.938 L 70.423 77.218 L 72.055 73.41 Z " fill="rgb(238,24,24)" mask="url(#_mask_HWVVuTaQOEytEGwXf9MKzFpJIltBML6s)" vector-effect="non-scaling-stroke" stroke-width="2" stroke="rgb(0,0,0)" stroke-linejoin="miter" stroke-linecap="square" stroke-miterlimit="3"/><path d=" M 94.904 73.41 L 99.8 73.954 L 94.904 74.498 L 94.904 73.41 Z  M 146.041 73.41 L 147.673 76.13 L 145.497 75.042 L 146.041 73.41 Z  M 181.946 73.41 L 187.93 73.954 L 182.49 75.042 L 181.946 79.938 L 181.946 73.41 Z  M 231.995 75.586 L 232.539 77.218 L 229.275 79.394 L 231.995 75.586 Z  M 26.359 76.674 L 28.535 79.938 L 26.359 76.674 Z  M 224.379 77.762 L 228.187 78.306 L 224.379 78.85 L 224.379 77.762 Z " fill-rule="evenodd" fill="rgb(255,14,14)"/><mask id="_mask_c5jgIubBkQQOHI2xkUnZyMz9dfWGJPzR"><path d=" M 69.879 84.29 L 71.511 88.098 L 70.423 88.098 L 69.879 84.29 Z " fill="white" stroke="none"/></mask><path d=" M 69.879 84.29 L 71.511 88.098 L 70.423 88.098 L 69.879 84.29 Z " fill="rgb(238,24,24)"/><path d=" M 69.879 84.29 L 71.511 88.098 L 70.423 88.098 L 69.879 84.29 Z " fill="rgb(238,24,24)" mask="url(#_mask_c5jgIubBkQQOHI2xkUnZyMz9dfWGJPzR)" vector-effect="non-scaling-stroke" stroke-width="2" stroke="rgb(0,0,0)" stroke-linejoin="miter" stroke-linecap="square" stroke-miterlimit="3"/><g clip-path="url(#_clipPath_uG4gXIWMkh9hjS5mUNZblVU007Xwixie)"><text transform="matrix(1,0,0,1,14.796,84.34)" style="font-family:'New Rocker';font-weight:400;font-size:36px;font-style:normal;fill:#ff0e0e;stroke:none;">RJ</text></g><defs><clipPath id="_clipPath_uG4gXIWMkh9hjS5mUNZblVU007Xwixie"><rect x="0" y="0" width="41.648" height="44.573" transform="matrix(1,0,0,1,14.796,50.284)"/></clipPath></defs></g></svg>